<svg width="110" height="98" viewBox="0 0 110 98" fill="none" xmlns="http://www.w3.org/2000/svg">
<path d="M70.146 2.19049C67.8177 4.51881 68.3131 7.24343 71.3349 8.68005C73.7623 9.86898 74.6045 9.91852 76.0411 8.87821C77.3786 7.98651 77.5768 4.86558 76.3879 4.41973C75.8429 4.17204 75.7439 3.92435 76.1402 3.4785C76.5365 2.98311 76.3383 2.5868 75.3475 1.79418C73.5146 0.357563 71.8798 0.506179 70.146 2.19049ZM75.0503 6.45081C75.0999 8.28374 74.9512 8.68005 74.2577 8.68005C73.5642 8.68005 73.5642 8.58098 74.1091 8.23421C74.5549 7.93697 74.654 7.34251 74.4558 6.50035C74.2082 5.4105 74.3568 4.22158 74.8026 4.22158C74.9017 4.22158 75.0008 5.21235 75.0503 6.45081Z" fill="white"/>
<path d="M69.7497 11.7019C67.7682 13.832 68.1149 21.5105 70.3442 24.3838C71.3349 25.6222 71.4836 25.6222 75.2485 25.3745C77.9731 25.1269 79.2611 25.2259 79.6079 25.6718C79.9051 26.0185 80.8959 27.3066 81.8867 28.5946C83.1251 30.3284 83.9673 30.9724 84.859 30.9724C87.435 30.9724 86.791 28.2973 82.927 23.4425L81.094 21.0647H77.874H74.654V19.6281C74.654 18.5878 74.1586 17.7456 72.8211 16.6062C71.7808 15.7145 71.4836 15.3677 72.1771 15.8136C74.9017 17.5474 76.8833 18.1419 79.6079 17.9933C81.9857 17.8447 82.3325 17.6961 82.4811 16.7053C82.6297 15.665 82.4811 15.6154 79.4593 15.6154C76.6356 15.6154 76.0411 15.4173 74.3568 14.0797C71.8303 12.0487 71.7312 11.9496 73.0688 12.3954C74.1586 12.6927 74.2082 12.6431 73.7128 11.7019C72.9697 10.3643 71.0377 10.3643 69.7497 11.7019ZM71.2854 12.2468C71.0377 12.5936 70.6909 13.3367 70.5919 13.8816C70.4432 14.7733 70.3937 14.7733 70.0965 14.0302C69.8983 13.5348 70.0469 12.8413 70.4928 12.3954C71.3845 11.5037 72.0285 11.4047 71.2854 12.2468Z" fill="white"/>
<path d="M86.0479 15.1202C85.503 15.6651 85.0571 16.3091 85.0571 16.6063C85.0571 17.2008 86.8901 19.0833 87.4845 19.0833C88.6734 19.0833 89.0698 17.6466 88.3267 15.9128C87.4845 13.8322 87.3854 13.7826 86.0479 15.1202Z" fill="white"/>
<path d="M60.5851 15.9128C57.6128 16.5568 54.9872 17.2503 54.7891 17.4485C54.4423 17.7953 55.8294 25.9196 56.5724 27.9507C56.7706 28.4461 57.4146 28.5452 59.0989 28.2975C63.1115 27.7525 68.3131 26.3655 68.5608 25.7215C68.8085 25.0279 66.8269 15.5165 66.3316 15.0706C66.1334 14.8725 63.5574 15.2688 60.5851 15.9128Z" fill="#D3312A"/>
<path d="M82.8275 17.5472C82.6789 17.8445 83.8183 20.2223 85.354 22.7983C87.9795 27.1082 89.0198 28.3467 89.0198 26.9596C89.0198 26.3156 92.0912 25.0276 93.5774 25.0276C94.2214 25.0276 95.3112 25.3743 96.1038 25.7211C96.8469 26.1174 97.4414 26.266 97.4414 26.0183C97.4414 25.2257 94.6177 24.0368 92.8343 24.0368C91.5958 24.0368 90.8032 23.5909 89.5647 22.3525C88.673 21.4112 87.286 20.5691 86.5429 20.3709C85.7503 20.2223 85.0072 19.6774 84.809 19.1325C84.4127 17.8445 83.2733 16.9032 82.8275 17.5472Z" fill="white"/>
<path d="M5.95361 58.8252L104.665 36.8252V70.4922L5.95361 92.4922V58.8252Z" fill="#D3312A"/>
<path d="M90.0602 27.3064C89.0199 28.1486 88.4254 29.1889 88.2273 30.4769C88.0291 31.7649 87.6823 32.3098 87.2365 32.1116C86.8897 32.0126 84.9082 32.2107 82.8275 32.6566C80.6974 33.1024 78.5672 33.4492 78.0718 33.4492C76.8334 33.4492 75.1491 30.675 75.1491 28.5944C75.1491 27.6036 74.8518 26.8606 74.3564 26.6624C73.9601 26.5138 70.7401 27.0092 67.1733 27.7523C61.2287 29.0403 60.7829 29.1889 60.7829 30.2787C60.7829 30.8732 60.981 31.5172 61.2287 31.7153C61.5259 31.864 61.5755 33.4987 61.4269 35.4307C61.1792 38.2049 61.2782 38.8984 61.8232 38.8984C63.0616 38.8984 63.5075 38.2049 63.557 36.1243C63.6561 29.6842 72.4244 28.2476 74.9509 34.2418C75.7435 36.1243 75.2977 36.1243 83.5706 34.1427L88.2768 33.0033L89.4162 34.4895C90.0602 35.2821 90.9023 35.9261 91.2987 35.9261C92.2894 35.9261 92.1904 36.8178 91.15 37.115C89.4162 37.6104 74.2078 40.88 73.4647 40.88C72.9198 40.88 72.9694 40.4837 73.8115 38.948C75.2481 36.372 74.6537 33.6969 72.2263 32.1116C70.0961 30.675 68.8081 30.675 66.678 32.1116C63.3589 34.3409 63.4579 38.6507 66.9256 40.88L68.8081 42.1185L66.1826 42.6634C62.8139 43.3569 43.4443 47.6668 40.472 48.3603C39.2336 48.6576 34.7751 49.6483 30.5643 50.5896C26.3535 51.5308 18.675 53.2151 13.5725 54.3545L4.25928 56.4351L4.40789 76.102C4.50697 86.9509 4.65559 95.9174 4.8042 96.0165C5.00236 96.2642 34.2797 89.8737 74.9014 80.7586C80.3506 79.5697 88.8217 77.6872 93.726 76.5973C98.6304 75.5075 104.278 74.269 106.259 73.8232L109.826 72.981V53.3142C109.826 42.4652 109.727 33.4987 109.529 33.3501C109.38 33.2015 108.439 33.251 107.448 33.4987C106.457 33.7464 104.08 34.2913 102.148 34.6877C100.265 35.084 98.1845 35.5298 97.5901 35.6784L96.4507 35.9261L97.4414 34.3409C100.711 28.9907 94.7664 23.3433 90.0602 27.3064ZM96.5002 30.031C96.9956 31.319 96.9461 31.7153 96.1039 32.8547C94.0728 35.6289 90.0107 34.4895 90.0107 31.22C90.0107 27.455 95.014 26.5633 96.5002 30.031ZM71.6814 33.9446C73.0189 35.2821 72.9694 37.6104 71.5823 38.8984C69.7989 40.5332 67.6192 40.1369 66.4798 37.8581C64.6964 34.4895 69.0063 31.2695 71.6814 33.9446ZM100.81 42.4652C100.661 44.2486 100.463 44.6449 99.5221 44.744C98.8781 44.8431 98.0359 44.6449 97.6891 44.3477C96.6984 43.5055 95.4599 44.1 95.4599 45.3385C95.4599 46.2302 95.6581 46.3292 97.1937 46.032C98.8285 45.7348 98.9276 45.8339 98.9276 46.9732C98.9276 47.964 98.6304 48.3108 97.3919 48.5585C95.8067 48.9052 95.1627 49.7969 95.6581 51.0354C95.8562 51.6794 96.1534 51.7289 96.9461 51.2831C97.491 50.9859 97.9368 50.4409 97.9368 50.0942C97.9368 49.4997 99.3239 48.8557 100.562 48.8062C100.761 48.8062 100.909 49.8465 100.81 51.1345L100.661 53.5123L97.1937 54.3545C91.794 55.6425 92.2399 56.1379 92.2399 48.608V41.9698L95.4599 41.2268C100.86 40.0378 101.008 40.0378 100.81 42.4652ZM90.6051 44.5954C89.862 46.2302 89.862 52.0262 90.6051 53.2151C90.9023 53.7105 91.0014 54.5031 90.8528 54.8994C90.5556 55.692 87.6328 56.7819 86.8897 56.3856C86.6916 56.237 86.5925 54.8003 86.7411 53.116C86.8897 51.4317 86.8897 50.4905 86.7411 51.0354C85.354 56.0388 84.9082 57.2277 84.3137 57.2277C83.6202 57.2277 82.5798 54.8003 82.5798 53.2151C82.5798 52.6702 82.3817 52.2739 82.0845 52.2739C81.4405 52.2739 81.4405 53.0665 82.1835 55.0976C82.8771 56.98 82.5303 57.4754 80.2515 57.9708L78.7158 58.268L78.9635 53.3637C79.1617 49.9951 79.0626 48.1622 78.6168 47.3695C77.8241 45.8339 78.7654 44.8431 81.49 44.4963C83.422 44.2486 83.5211 44.2982 83.8183 45.6357C84.0165 46.4283 84.3137 47.5182 84.5614 48.0631L85.0072 49.0539V48.0631C85.0568 47.5182 85.3045 46.2302 85.5522 45.2394C85.998 43.6046 86.2952 43.3569 88.1777 42.9606C90.7042 42.4157 91.3977 42.8615 90.6051 44.5954ZM76.338 46.6265C76.9324 47.2209 77.1306 48.5089 77.1306 52.3234C77.1306 56.98 77.0811 57.3268 75.8426 58.4662C74.406 59.8037 71.186 60.4973 69.7989 59.7542C69.254 59.457 68.709 58.5157 68.5109 57.6736C68.0155 55.0976 68.1641 50.1437 68.8577 48.8062C70.0466 46.3788 74.7527 44.9917 76.338 46.6265ZM66.9256 54.3545C66.9256 60.8441 66.8761 60.8936 65.6872 61.2404C62.8139 62.033 62.6653 61.9339 63.0121 58.9616C63.3589 56.2865 63.1607 55.8407 61.8232 56.6828C61.3278 56.98 61.2782 57.7231 61.5259 59.556C61.8232 61.8844 61.7736 62.0825 60.6838 62.3798C57.5133 63.2219 57.5628 63.2714 57.5628 56.237V49.7969L59.2472 49.3016C61.5259 48.6576 61.8727 49.0043 61.4764 51.5803C61.1792 53.6114 61.2287 53.76 62.269 53.76C63.2598 53.76 63.3093 53.5619 63.1607 51.184C63.0121 48.8062 63.1112 48.608 64.2506 48.2612C67.0743 47.4686 66.9752 47.2705 66.9256 54.3545ZM52.0641 52.0757C52.6585 53.661 52.3613 54.8003 51.1228 55.3453C50.1816 55.7911 49.7357 55.7911 49.2899 55.3453C48.2 54.2554 46.912 54.6517 46.912 55.9893C46.912 57.1782 47.0111 57.2277 48.6954 56.9305C50.3302 56.6333 50.4293 56.6828 50.2807 57.7727C50.1816 58.5653 49.6367 59.0607 48.5468 59.4074C47.2093 59.7542 46.912 60.101 46.912 61.2404C46.912 62.3302 47.1102 62.5284 47.9028 62.3302C48.3982 62.1816 48.9927 61.6862 49.1413 61.1908C49.4385 60.2991 51.2219 59.5561 51.965 60.0019C52.609 60.3982 52.4108 63.4696 51.7668 64.0641C51.0733 64.609 43.8406 66.1942 43.4939 65.8475C43.3948 65.7484 43.2957 62.8256 43.2462 59.3084L43.1966 52.9179L46.4167 52.1748C50.7265 51.1345 51.7173 51.1345 52.0641 52.0757ZM41.9582 55.2462C41.9582 56.881 41.76 57.3268 40.8683 57.6736C40.2243 57.9213 39.5308 57.9213 39.2831 57.6736C38.9859 57.4259 38.2923 57.2277 37.6483 57.2277C36.8062 57.2277 36.5089 57.525 36.5089 58.268C36.5089 59.1102 36.7566 59.2588 38.1437 59.1102C39.5308 58.9616 39.7289 59.1102 39.7289 60.1505C39.7289 61.0917 39.3822 61.4881 38.1437 61.7853C36.8557 62.1321 36.5089 62.4788 36.5089 63.4201C36.5089 65.0548 37.7474 65.0053 38.7877 63.4201C39.2831 62.677 40.0757 62.1816 40.7692 62.1816C41.8591 62.1816 41.9582 62.3798 41.9582 64.3613V66.541L39.3822 67.1355C37.9455 67.4327 35.7658 67.829 34.5769 67.9776C32.4468 68.2748 32.3972 68.2748 32.7935 67.0859C33.5366 64.9062 33.6357 59.2093 32.9917 57.6736C32.1991 55.692 32.6449 55.2957 37.1034 54.2059C42.1068 53.017 41.9582 52.9674 41.9582 55.2462ZM30.6634 57.0791C31.7037 58.0204 31.8523 60.1505 30.8615 61.4385C30.4652 61.9834 30.3661 62.7265 30.5643 63.1724C30.7624 63.5687 31.2083 64.7576 31.5551 65.8475C32.2486 68.0272 31.7037 68.9189 29.5735 69.2161C28.4341 69.3647 28.3351 69.2161 28.1864 66.9868C28.0378 65.0053 27.8892 64.6585 26.9975 64.6585C26.0563 64.6585 26.0067 64.8567 26.304 67.3336L26.6507 69.9592L25.0655 70.3059C24.2233 70.4545 23.2326 70.6032 22.9353 70.6032C22.539 70.6032 22.3904 68.5721 22.44 64.0145V57.4754L24.9169 56.881C28.3846 56.0883 29.6231 56.1379 30.6634 57.0791ZM21.152 60.2001C21.152 61.6862 20.9538 62.1816 20.1116 62.4293C19.5172 62.6274 18.8236 62.5284 18.5264 62.2311C17.6347 61.3394 16.1981 61.5871 16.1981 62.677C16.1981 63.4696 16.5449 63.6678 17.9815 63.6678C19.5172 63.6678 19.7153 63.8164 19.5667 64.7576C19.4676 65.5007 18.9227 65.9465 17.7338 66.2438C16.2972 66.6401 16.099 66.8382 16.3467 68.0272C16.4458 68.7702 16.6935 69.7115 16.8421 70.1078C17.3375 71.2472 16.5449 72.1389 14.5633 72.5847C12.5818 73.0306 11.8387 72.2379 12.7304 70.6032C13.4239 69.3152 13.3744 63.5191 12.6313 61.9339C12.235 61.0422 12.235 60.4973 12.6313 60.101C13.2258 59.5065 20.2107 57.7727 20.8052 58.0699C21.0033 58.169 21.152 59.1597 21.152 60.2001ZM94.4691 59.6551C94.4691 60.2001 93.7756 62.1321 92.983 63.965C91.6454 66.8382 91.4968 67.6804 91.7445 69.9096L92.0913 72.4361L90.2088 72.7333C87.7814 73.1296 87.286 72.6342 88.0291 70.4545C88.6236 68.8693 88.5245 68.5225 86.8402 65.3521C85.8494 63.5191 85.0568 61.6862 85.0568 61.3394C85.0568 61.0422 85.8989 60.4973 86.8897 60.2496C88.9703 59.6551 89.5153 60.0514 89.5153 62.2807C89.5153 63.0733 89.7134 63.6678 89.9611 63.6678C90.506 63.6678 91.0014 62.4293 91.0014 60.9431C91.0014 59.7047 92.1408 58.7634 93.627 58.7139C94.1224 58.7139 94.4691 59.0607 94.4691 59.6551ZM83.6697 62.033C84.71 62.9247 84.9082 66.0951 83.9669 67.0364C83.5706 67.4327 83.5706 67.7795 83.9174 68.2253C84.2146 68.5721 84.6109 69.9096 84.7596 71.1976C85.0568 73.1792 84.9577 73.5755 84.1155 74.0213C82.2826 75.0121 81.6882 74.6653 81.3414 72.4361C80.8955 69.8601 80.7469 69.5629 79.8552 69.9592C78.9635 70.2564 78.8645 72.1389 79.6571 72.9315C80.5983 73.8727 79.8057 74.9626 77.7746 75.5075C75.4463 76.1515 74.8023 75.6066 75.5949 73.625C76.1398 72.337 76.1398 68.3739 75.5454 64.1631C75.3968 63.0733 75.6444 62.8751 78.3691 62.1321C82.1835 61.0422 82.5798 61.0422 83.6697 62.033ZM74.0592 65.253C73.9106 67.0364 73.7124 67.4327 72.7217 67.5318C72.0777 67.6308 71.3346 67.4822 71.0869 67.2345C70.3438 66.4915 69.2044 67.0859 69.2044 68.1758C69.2044 68.9189 69.5017 69.117 70.8392 69.0179C72.1272 68.8693 72.4244 69.0675 72.4244 69.8601C72.4244 70.5536 71.929 70.9995 70.8392 71.3462C69.5017 71.693 69.2044 72.0398 69.2044 73.1792C69.2044 73.9223 69.3035 74.5663 69.4026 74.5663C70.1952 74.5663 71.186 73.8232 71.186 73.2782C71.186 72.5352 73.118 71.5444 73.8115 71.9407C74.0097 72.0398 74.1583 73.1296 74.1583 74.269V76.3992L70.0961 77.2413C67.8173 77.6872 65.8853 78.034 65.7367 78.034C65.5881 78.034 65.489 75.0616 65.5386 71.4949V64.9062L69.0063 64.1136C74.3069 62.8256 74.2574 62.8256 74.0592 65.253ZM64.3992 66.6896C64.3496 67.3336 63.8047 70.405 63.1607 73.4764C61.9718 79.421 62.0709 79.322 58.8508 79.6687C57.6619 79.7678 57.5628 79.4706 56.1262 73.6746C55.3336 70.3555 54.7887 67.5318 54.8878 67.3832C55.0364 67.2841 56.0767 67.0364 57.2656 66.8382L59.4453 66.4915L59.1481 68.1758C58.9995 69.117 59.1481 70.9499 59.4453 72.337L59.9407 74.8139L60.3865 72.8324C60.6342 71.7426 60.7333 69.8105 60.5352 68.5225C60.2379 66.1942 60.2875 66.1942 61.8727 65.6988C64.0524 65.1044 64.4983 65.253 64.3992 66.6896ZM54.1447 69.2161C53.5998 72.0398 53.5502 74.2195 53.9465 77.2413C54.1942 78.8761 54.1942 80.3623 53.9961 80.5604C53.7484 80.7586 52.8071 81.0558 51.8659 81.254L50.132 81.5512V74.8635V68.1758L51.3705 67.9776C54.4419 67.4822 54.4915 67.5318 54.1447 69.2161ZM44.0883 74.8635C43.7911 79.8669 43.8406 80.1146 44.7323 79.9164C45.3763 79.8173 45.7726 79.2229 45.9213 78.034C46.1194 76.5973 46.4167 76.2506 47.556 76.1515C48.8936 76.0029 48.8936 76.0029 48.8936 78.9257V81.898L45.3763 82.6906C40.472 83.7804 39.7785 83.7309 40.2243 82.3438C40.9179 80.0155 41.0665 76.0029 40.472 73.5755C40.1252 72.1884 39.9766 70.9004 40.1252 70.7518C40.3729 70.5536 42.8003 69.8601 44.0388 69.6619C44.237 69.6124 44.237 71.9902 44.0883 74.8635ZM38.9859 73.0801C38.9859 74.7644 38.8372 75.0616 37.6979 75.3589C36.9052 75.557 36.2612 75.458 36.0135 75.0616C35.4686 74.1204 33.7843 74.6653 33.7843 75.8047C33.7843 76.6469 34.0815 76.746 35.4191 76.6469C36.8062 76.4983 37.0043 76.6469 37.0043 77.6872C37.0043 78.6284 36.6575 79.0247 35.6668 79.2724C34.032 79.6687 33.5861 80.2632 33.8834 81.5512C34.0815 82.2943 34.3292 82.3438 35.0723 81.9475C35.5677 81.6998 36.0135 81.1549 36.0135 80.8081C36.0135 80.2137 37.4006 79.5697 38.6391 79.5201C38.8372 79.5201 38.9859 80.5604 38.8868 81.8484L38.7382 84.2263L36.2117 84.7712C34.7751 85.0684 32.8926 85.4648 32.0009 85.6629L30.3166 85.9601V79.3715V72.7333L33.5366 71.9902C38.7877 70.7518 38.9859 70.8013 38.9859 73.0801ZM28.0874 75.0121C28.3351 75.557 28.5827 77.8853 28.5827 80.1641C28.5827 85.5143 27.8397 86.6041 23.7775 87.4958C22.1923 87.7931 20.7061 88.1398 20.4089 88.2389C20.1116 88.3875 19.9135 86.1088 19.9135 81.7989V75.1112L21.6473 74.6158C24.7683 73.7736 27.4929 73.9718 28.0874 75.0121Z" fill="white"/>
<path d="M72.0284 49.5991C71.5825 50.0449 71.5825 56.4354 71.9788 56.8813C72.177 57.0299 72.7219 56.9803 73.2668 56.6831C74.0594 56.2372 74.1585 55.6923 74.0594 52.8686C73.9604 50.3422 73.7127 49.5 73.1677 49.4009C72.7219 49.3514 72.2265 49.4009 72.0284 49.5991Z" fill="white"/>
<path d="M26.4527 59.5564C26.2546 59.705 26.106 60.3985 26.106 61.0921C26.106 61.9838 26.3041 62.2315 26.8986 61.9838C27.3444 61.8352 27.7903 61.6865 27.8893 61.6865C27.9884 61.6865 28.0875 61.1416 28.0875 60.4481C28.0875 59.2592 27.1958 58.7638 26.4527 59.5564Z" fill="white"/>
<path d="M79.1123 65.8971C79.1123 67.3338 80.7966 67.6805 81.292 66.343C81.7874 65.0054 81.6388 64.6587 80.3508 64.6587C79.36 64.6587 79.1123 64.9064 79.1123 65.8971Z" fill="white"/>
<path d="M23.4806 77.3406C23.2824 77.5387 23.1338 79.223 23.1338 81.1055C23.1338 84.1274 23.2329 84.4741 24.1246 84.4741C25.3135 84.4741 25.7098 83.087 25.5116 79.7184C25.4126 78.0341 25.1153 77.2415 24.6199 77.1424C24.1741 77.0929 23.6787 77.1424 23.4806 77.3406Z" fill="white"/>
<path d="M33.6359 42.8616C20.4586 45.8339 9.5601 48.3604 9.36195 48.509C9.21333 48.6576 9.21333 48.9053 9.36195 49.0539C9.85734 49.5493 57.9593 38.6508 58.207 38.0068C58.3061 37.7096 58.207 37.4124 57.9593 37.4619C57.7612 37.4619 46.7636 39.8893 33.6359 42.8616Z" fill="#F9C06A"/>
<path d="M31.8029 46.6267C21.4494 48.955 10.3032 51.432 7.03362 52.175L1.08899 53.5621L0.940371 73.6253C0.791755 93.7875 0.940371 96.8589 1.93114 96.8589C2.32745 96.8589 2.37699 90.9638 2.07976 75.8545C1.83207 61.7855 1.88161 54.751 2.22838 54.5529C2.52561 54.4043 12.8296 52.0264 25.2143 49.2523C51.2221 43.5058 51.3707 43.4562 51.3707 42.8618C51.3707 42.2178 53.1541 41.871 31.8029 46.6267Z" fill="#F9C06A"/>
<path d="M62.3682 86.7033C37.4502 92.2516 16.9908 96.9083 16.7926 97.0569C16.644 97.2055 16.644 97.4532 16.7926 97.6514C17.0403 97.8495 47.7047 91.3104 58.5537 88.7344C60.1885 88.3381 65.1919 87.1987 69.6999 86.2079C74.2079 85.2172 80.8956 83.7805 84.5615 82.9384C93.0326 81.0064 103.882 78.6285 107.25 77.935C109.826 77.3901 110.817 76.4984 108.736 76.5974C108.092 76.5974 87.2365 81.155 62.3682 86.7033Z" fill="#F9C06A"/>
<path d="M92.7354 83.9786C90.7539 84.474 81.7874 86.5051 71.6815 88.6848C67.223 89.6756 63.4086 90.5673 63.3095 90.7159C62.5664 91.459 64.3003 91.459 67.6194 90.7159C76.6354 88.6848 82.2828 87.4463 89.1687 85.9106C93.1813 85.0189 96.4508 84.1272 96.4508 83.8796C96.4508 83.3842 94.7665 83.4337 92.7354 83.9786Z" fill="#F9C06A"/>
<path d="M18.5837 41.5842C17.8906 41.7385 17.2854 41.781 16.768 41.7118C16.2484 41.6328 15.7939 41.4779 15.4044 41.247C15.0149 41.0161 14.6699 40.7549 14.3693 40.4632L15.7142 38.8422C16.0322 39.2119 16.3875 39.4965 16.7802 39.696C17.1708 39.8856 17.6394 39.9196 18.186 39.7979C18.6838 39.6871 19.0411 39.4743 19.2579 39.1597C19.4845 38.8429 19.551 38.4746 19.4576 38.0549L19.438 37.9671C19.3446 37.5473 19.114 37.2708 18.7463 37.1376C18.3861 36.9924 17.9278 36.9817 17.3714 37.1056L16.449 37.3109L16.0416 35.4807L16.9933 35.2689C17.5399 35.1472 17.9124 34.9567 18.1108 34.6974C18.3168 34.4261 18.385 34.1343 18.3154 33.822L18.2926 33.7195C18.21 33.3485 18.0218 33.078 17.7277 32.9078C17.4337 32.7377 17.072 32.7004 16.6425 32.796C16.2325 32.8873 15.8709 33.0805 15.5575 33.3756C15.242 33.661 15.0008 34.0272 14.834 34.4741L13.1708 33.4921C13.3583 33.0918 13.5848 32.7288 13.8505 32.4033C14.1161 32.0778 14.4473 31.7941 14.8442 31.552C15.2411 31.31 15.7324 31.1238 16.318 30.9934C17.0501 30.8304 17.7096 30.8014 18.2964 30.9064C18.893 31.0092 19.3834 31.233 19.7675 31.5778C20.1591 31.9106 20.4158 32.3504 20.5375 32.897C20.6831 33.551 20.6042 34.1166 20.3007 34.594C20.0069 35.0692 19.6073 35.4143 19.102 35.6292L19.1215 35.7171C19.5467 35.6941 19.9394 35.7553 20.2995 35.9005C20.6673 36.0337 20.9819 36.2505 21.2434 36.5509C21.505 36.8512 21.6879 37.2357 21.7922 37.7042C21.9269 38.3094 21.8794 38.8783 21.6497 39.411C21.4275 39.9317 21.0519 40.3841 20.5227 40.7683C20.0011 41.1405 19.3548 41.4125 18.5837 41.5842ZM27.8996 39.3258L25.6243 29.106L27.8498 28.6105L28.932 33.4715L29.0199 33.4519L30.0294 31.1526L31.6859 27.7565L34.2043 27.1958L31.699 32.1639L36.787 37.3471L34.1661 37.9306L30.4665 34.0826L29.4927 35.9898L30.1251 38.8303L27.8996 39.3258ZM38.0943 37.0561L35.8191 26.8363L38.1764 26.3115L41.746 30.5419L41.7753 30.5353L43.1838 25.1967L45.5557 24.6686L47.8309 34.8884L45.7372 35.3545L44.2443 28.6487L44.2003 28.6585L43.7861 30.3182L42.6 34.378L39.8508 31.2097L38.7162 29.7719L38.6723 29.7816L40.1881 36.59L38.0943 37.0561Z" fill="white"/>
</svg>
