<svg width="90" height="30" viewBox="0 0 90 30" fill="none" xmlns="http://www.w3.org/2000/svg">
<path d="M44.3683 9.21097C38.3727 11.6389 38.0506 20.0129 43.8728 22.7134C45.5327 23.5062 47.0936 23.6549 48.8526 23.1842C50.7851 22.6887 51.677 22.094 52.891 20.5084C54.1049 18.8733 54.2536 18.3282 54.2536 15.7268C54.2536 13.7944 54.204 13.6209 53.3369 12.3574C51.6522 9.92945 50.0666 8.98799 47.3661 8.81457C46.0035 8.74024 45.3345 8.81457 44.3683 9.21097ZM49.0013 12.3326C50.1657 12.9272 51.008 14.4633 51.008 15.9746C51.008 17.8327 50.1905 19.2945 48.7287 20.0625C48.0102 20.4341 45.7557 20.5332 45.508 20.2111C45.4336 20.0873 45.1363 19.8643 44.8638 19.7156C44.5913 19.567 44.071 19.0219 43.7241 18.4769C43.2039 17.7336 43.0552 17.2381 43.08 16.1728C43.08 12.7786 46.1026 10.8214 49.0013 12.3326Z" fill="#ECC115"/>
<path d="M28.71 9.18619C25.7122 10.2267 23.854 12.7786 23.8292 15.9746C23.8045 20.2607 26.9757 23.4567 31.237 23.4319C34.2844 23.4071 36.3655 22.0693 37.8024 19.2697C38.5457 17.7584 38.5952 17.5354 38.4961 15.7268C38.3723 13.5714 38.0006 12.6795 36.6132 11.1434C34.656 8.96321 31.5343 8.19518 28.71 9.18619ZM32.7731 12.1592C34.2348 12.8281 35.1515 14.2899 35.1515 15.9746C35.1515 20.8057 29.3293 22.1188 27.496 17.7088C26.5793 15.5534 27.8924 12.5804 30.023 11.9362C31.1131 11.6142 31.6334 11.6637 32.7731 12.1592Z" fill="#EC4015"/>
<path d="M80.5398 9.45872C79.7222 9.83034 78.6817 10.4993 78.2109 10.97C75.783 13.4227 75.5848 17.7584 77.765 20.6323C80.193 23.8035 85.371 24.2495 88.2201 21.4994C88.8395 20.9296 89.335 20.3102 89.335 20.1616C89.335 20.0129 88.8147 19.5422 88.1953 19.0963C87.0309 18.3034 87.0309 18.3034 86.6345 18.8237C85.8912 19.79 84.5782 20.3598 83.1908 20.3598C82.0015 20.3598 81.7538 20.2607 81.0105 19.5174C80.5398 19.0467 80.1682 18.576 80.1682 18.4769C80.1682 18.353 80.6885 18.0309 81.3574 17.7832C82.5961 17.2877 86.7584 15.5286 88.5422 14.7606C89.112 14.5128 89.5827 14.1908 89.5827 14.0917C89.5827 13.5218 87.9228 10.8213 87.2539 10.3258C85.0984 8.69069 82.8439 8.39338 80.5398 9.45872ZM84.4543 12.0106C84.9002 12.2088 85.3957 12.5308 85.5692 12.7538C85.8417 13.0759 85.8169 13.1502 85.3214 13.2989C84.7764 13.4723 83.8349 13.8687 81.2335 15.0579C79.6975 15.7516 79.4249 15.8012 79.4249 15.2313C79.4249 14.2155 80.4407 12.7043 81.4813 12.2088C82.6952 11.6142 83.3642 11.5646 84.4543 12.0106Z" fill="#EC4015"/>
<path d="M71.6705 1.45632C71.5714 1.53065 71.4971 6.43613 71.4971 12.3574V23.085H73.2313H74.9656V12.184V1.28289H73.4048C72.5376 1.28289 71.7448 1.35722 71.6705 1.45632Z" fill="#159640"/>
<path d="M8.61748 1.2829C6.01609 2.15003 3.24127 4.55322 2.12639 6.88209C0.887635 9.43393 0.565558 12.3574 1.25926 14.9836C1.77954 17.0151 2.42369 18.13 4.0093 19.8395C7.37873 23.4814 12.9036 24.4972 17.3383 22.317C20.9307 20.5332 22.9375 17.1638 22.9375 12.8777V10.9452H17.6109H12.2842V12.5556V14.166H15.8766C19.4442 14.166 19.469 14.166 19.469 14.711C19.4442 15.6029 18.6266 17.1886 17.71 18.1052C14.8113 21.0039 9.68281 20.8057 6.63547 17.6593C4.82688 15.8011 4.48003 14.9092 4.48003 12.0601C4.48003 9.95421 4.55436 9.43393 5.04986 8.51725C5.81789 7.05551 7.42828 5.569 9.06344 4.7762C11.0207 3.83474 13.8203 3.85952 15.7527 4.80097C16.496 5.1726 17.3136 5.61855 17.5365 5.79198C17.9082 6.06451 18.1311 5.94063 19.0974 4.99917C19.7168 4.40457 20.2123 3.83474 20.2123 3.76042C20.1875 3.36401 17.4374 1.70408 16.0748 1.2829C13.9689 0.638748 10.5004 0.638748 8.61748 1.2829Z" fill="#406BEC"/>
<path d="M59.3323 9.68168C55.0214 12.2583 54.2039 17.2629 57.4742 21.0287C58.7377 22.4657 60.5711 23.3328 62.3797 23.3328C63.8909 23.3328 65.3031 22.8868 66.1455 22.1436C66.5914 21.7224 66.6162 21.7472 66.4428 23.0603C66.1455 25.3891 65.4022 26.3306 63.5193 26.8013C61.9585 27.1977 60.8188 26.8013 59.9269 25.6121C59.5553 25.1166 59.1837 24.5963 59.1093 24.4972C59.0102 24.3981 58.3165 24.5715 57.5485 24.9184C55.9381 25.6121 55.9133 25.9094 57.276 27.495C58.5891 29.0559 60.2985 29.7743 62.5531 29.7743C65.8234 29.7496 67.5329 28.7585 68.7716 26.1819L69.5149 24.5963L69.5892 16.916L69.6388 9.21095H68.1027C67.0126 9.21095 66.5171 9.31005 66.3685 9.58258C66.195 9.87988 65.9721 9.85511 64.9563 9.33483C63.0238 8.3686 61.3391 8.4677 59.3323 9.68168ZM63.99 11.961C66.3685 12.8529 67.3842 15.9498 66.0464 18.3282C65.0306 20.112 63.4698 20.8057 61.7851 20.2111C60.6949 19.8395 60.1251 19.3688 59.6048 18.353C57.7715 14.9588 60.6949 10.6975 63.99 11.961Z" fill="#406BEC"/>
</svg>
