<svg width="98" height="24" viewBox="0 0 98 24" fill="none" xmlns="http://www.w3.org/2000/svg">
<g clip-path="url(#clip0_333_910)">
<path d="M7.06632 2.82645C6.40228 2.90025 5.82543 3.06127 5.20834 3.35646C4.49735 3.6919 4.12844 3.94684 3.5583 4.49026C2.35766 5.6442 1.70703 7.14028 1.70703 8.76384C1.70703 10.2532 2.65279 13.1448 3.36378 13.8358L3.59184 14.0572L5.84556 14.0773C7.34133 14.0907 8.13281 14.1175 8.19318 14.1712C8.31392 14.2651 8.32062 16.7072 8.19989 16.8279C8.07245 16.9554 7.75719 16.9286 7.6767 16.781C7.64317 16.7072 7.60963 16.3114 7.60963 15.9021V15.1574L7.37487 15.0568C6.66387 14.7616 4.1888 14.9696 4.1888 15.3251C4.1888 15.5197 4.75894 16.5462 5.37603 17.4787C6.31508 18.8943 7.65658 20.7258 7.75719 20.7325C7.83098 20.7325 8.97796 19.3371 9.72249 18.3509C11.6073 15.835 12.8281 13.5607 13.311 11.6755C13.5525 10.7161 13.4653 10.2465 12.9823 9.99828C12.4994 9.75676 12.1037 9.70979 10.1585 9.66954L8.24684 9.62929L8.22672 7.99231C8.2066 6.26812 8.22672 6.1742 8.51514 6.1742C8.84381 6.1742 8.88405 6.3218 8.88405 7.60991C8.88405 8.67662 8.89747 8.79738 9.00479 8.84435C9.06516 8.87118 9.72249 8.89131 10.4603 8.8846C11.9561 8.8846 12.9287 8.75713 13.4452 8.50219L13.747 8.35459L13.7336 7.99902C13.7 7.17383 13.1567 5.90584 12.4726 5.05381C11.1646 3.42355 9.15906 2.59835 7.06632 2.82645Z" fill="#EC6B15"/>
<path d="M77.4682 5.64469C75.4749 5.8406 73.7236 7.06217 72.8595 8.85994C72.3986 9.80492 72.2373 10.5655 72.2373 11.8216C72.2373 13.6655 72.7903 15.0369 74.0117 16.2008C75.279 17.4224 76.6962 17.9525 78.7586 17.9525C80.1873 17.9525 81.3971 17.6644 82.5377 17.0536L83.3558 16.6157L83.3903 13.8268L83.4134 11.038H80.6482H77.883V12.3863V13.7462L79.2656 13.7116L80.6482 13.677V14.3224C80.6482 14.9101 80.6251 14.9677 80.3371 15.0945C80.1527 15.1637 79.496 15.2328 78.8623 15.2328C77.4567 15.2443 76.7423 14.9793 76.0395 14.1841C75.4749 13.5387 75.233 12.8242 75.233 11.7755C75.233 10.7038 75.544 9.83949 76.1547 9.20566C76.7999 8.54878 77.3069 8.35287 78.4014 8.34135C79.4038 8.34135 79.9223 8.53726 80.5675 9.14804L80.9017 9.45919L81.8695 8.49116C82.3995 7.96105 82.8373 7.48856 82.8373 7.45399C82.8373 7.40789 82.6414 7.18893 82.411 6.94692C81.351 5.90975 79.5536 5.43726 77.4682 5.64469Z" fill="#EC6B15"/>
<path d="M21.7721 5.80604C20.355 6.32462 19.4793 7.53466 19.4678 9.0328C19.4563 10.8421 20.4126 11.983 22.8206 13.0086C24.5719 13.7577 24.9636 14.2302 24.3876 14.9101C24.1802 15.1406 23.9843 15.2328 23.535 15.2674C22.6823 15.3596 22.21 15.1521 21.5647 14.4376L21.0117 13.8153L19.9402 14.4261C19.3526 14.7718 18.8226 15.0945 18.765 15.1521C18.6267 15.2904 19.318 16.3045 19.8826 16.8001C20.1245 17.0075 20.666 17.3417 21.0808 17.5376C21.7952 17.8834 21.8873 17.8949 23.3276 17.8949C24.7908 17.8949 24.8484 17.8834 25.5973 17.5146C27.026 16.8116 27.6021 15.786 27.51 14.1034C27.4178 12.3748 26.6919 11.5566 24.2493 10.3927C22.6017 9.62053 22.2791 9.33243 22.4173 8.80232C22.5095 8.43354 22.7745 8.27221 23.316 8.27221C23.7539 8.27221 24.353 8.6986 24.4797 9.0789C24.5258 9.20566 24.595 9.30938 24.641 9.30938C24.7217 9.30938 26.7956 8.00715 26.9223 7.88038C27.1297 7.67295 25.92 6.38224 25.171 5.99042C24.6871 5.73689 24.4106 5.69079 23.4428 5.65622C22.5902 5.63317 22.1523 5.66774 21.7721 5.80604Z" fill="#EC6B15"/>
<path d="M61.4759 5.74838C59.4596 6.24392 57.7429 7.96102 57.2014 10.0123C56.9709 10.8651 56.9824 12.7896 57.2129 13.5848C57.7774 15.5094 59.16 16.9499 61.0727 17.6183C61.6142 17.8027 62.1672 17.8833 63.2042 17.9294C64.8864 17.987 66.0385 17.745 67.329 17.0536L68.147 16.6157L68.1816 13.8268L68.2046 11.038H65.4394H62.6742V12.3633V13.6885H64.0568H65.4394V14.3224C65.4394 14.9101 65.4164 14.9677 65.1283 15.0945C64.944 15.1636 64.2872 15.2328 63.6535 15.2328C62.6857 15.2328 62.4092 15.1982 61.8907 14.9677C60.704 14.4376 60.0242 13.2852 60.0242 11.787C60.0242 10.3465 60.6003 9.25173 61.6603 8.67552C62.1903 8.37589 62.3861 8.3298 63.1927 8.34132C64.195 8.34132 64.725 8.53723 65.3703 9.14801L65.6929 9.45916L66.6722 8.47961C67.7898 7.36177 67.7898 7.37329 66.845 6.67032C65.8311 5.90972 65.1514 5.70229 63.4231 5.66772C62.605 5.64467 61.7294 5.67924 61.4759 5.74838Z" fill="#EC6B15"/>
<path d="M49.8853 11.7871V17.8373H51.3255H52.7657V11.7871V5.73689H51.3255H49.8853V11.7871Z" fill="#EC6B15"/>
<path d="M85.9253 6.10567C86.2133 6.57816 87.377 8.66403 89.0477 11.7064L90.3266 14.0343V15.9358V17.8373H91.7668H93.207V15.8321V13.8384L93.8292 12.6975C95.0044 10.5194 97.47 5.85214 97.47 5.79451C97.47 5.75994 96.7787 5.73689 95.9492 5.73689H94.4168L93.184 8.19154C92.5042 9.52834 91.9166 10.7384 91.882 10.8651C91.8244 11.0495 91.7437 10.9573 91.4787 10.3811C91.3059 9.98931 90.6837 8.7908 90.0961 7.70753L89.0361 5.73689H87.3655H85.6948L85.9253 6.10567Z" fill="#EC6B15"/>
<path d="M36.7044 8.51422C36.0246 9.96627 35.414 11.3261 35.3448 11.522C35.2181 11.8678 35.195 11.8217 34.6766 10.335C34.377 9.48225 33.9046 8.15697 33.6281 7.37333L33.1211 5.96738H31.6003C30.7592 5.96738 30.0679 6.00196 30.0679 6.05958C30.0679 6.10567 31.0472 8.8369 32.2455 12.1328C34.4 18.0447 34.4346 18.1254 34.7572 18.1599C35.0798 18.1945 35.1144 18.1369 36.4624 15.3481C37.2229 13.7923 37.9257 12.3057 38.0179 12.0637C38.1677 11.6373 38.3635 11.4644 38.3635 11.741C38.3635 11.8101 39.0203 13.2852 39.8268 15.0254C41.8316 19.3815 41.4398 19.5774 43.7903 12.9971C44.7927 10.1737 45.772 7.44248 45.9679 6.91236L46.3135 5.96738H44.8387H43.3755L42.4883 8.47965C42.0044 9.85103 41.5435 11.1878 41.4629 11.4414C41.3246 11.8908 41.3246 11.8908 41.2094 11.6142C41.1518 11.4529 40.5181 10.093 39.8268 8.58337C38.1446 4.96478 38.352 4.97631 36.7044 8.51422Z" fill="#EC6B15"/>
</g>
<defs>
<clipPath id="clip0_333_910">
<rect width="97" height="23" fill="white" transform="translate(0.707031 0.287094)"/>
</clipPath>
</defs>
</svg>
